<svg preserveAspectRatio="xMidYMid meet" data-bbox="0.003 0.001 490.996 491.002" xmlns="http://www.w3.org/2000/svg" viewBox="0.003 0.001 490.996 491.002" height="491" width="491" data-type="color" role="presentation" aria-hidden="true" aria-label="">
    <g>
        <g clip-path="url(#35a45a10-8661-4434-a0a3-7fe8fb79a467_comp-m7e26o1o)">
            <path fill="#7B3D17" d="M233.307.352C426.784-9.782 555.391 201.623 457.303 369.6c-94.575 161.919-329.016 161.823-423.527 0C-59.28 210.255 50.61 9.91 233.307.351M80.665 410.776c122.953 122.662 332.688 71.992 386.475-92.468 61.9-189.22-127.632-363.751-311.4-287.699C3.609 93.571-36.396 293.98 80.665 410.776" data-color="1"></path>
            <path fill="#7B3D17" d="M315.776 63.952c9.79 9.959 9.375 22.458 25.584 27.733 9.359 3.037 18.063-.128 28.204 2.94 12.328 3.725 24.274 16.241 27.548 28.772 3.274 12.532-2.108 19.853 5.557 32.8 6.245 10.533 16.561 11.428 24.483 19.245 10.843 10.693 14.564 27.812 10.077 42.198-2.22 7.097-8.943 14.146-10.317 20.843-4.759 23.225 18.477 31.744 10.636 59.797-7.107 25.382-31.477 23.017-38.104 43.396-2.939 9.015.079 17.183-2.332 26.438-3.274 12.516-15.22 25.031-27.548 28.772-13.224 3.996-22.231-1.759-35.294 6.633-10.269 6.585-10.812 16.256-18.494 24.056-10.795 10.965-27.612 14.626-42.161 10.086-7.09-2.206-14.133-8.951-20.825-10.326-23.204-4.763-31.716 18.494-59.744 10.646-25.264-7.081-23.284-31.601-43.358-38.138-9.008-2.941-17.168.08-26.415-2.334-12.505-3.277-25.01-15.233-28.746-27.573-3.993-13.25 1.757-22.234-6.628-35.325-6.276-9.814-16.385-10.981-24.035-18.509-10.843-10.678-14.564-27.797-10.077-42.198 2.22-7.097 8.943-14.146 10.317-20.844 4.759-23.224-18.477-31.744-10.636-59.796 7.074-25.287 31.573-23.305 38.104-43.397 2.939-9.015-.08-17.183 2.332-26.438 3.274-12.515 15.22-25.03 27.548-28.771 13.24-3.996 22.215 1.758 35.294-6.633 9.806-6.282 10.972-16.4 18.494-24.057 10.684-10.853 27.788-14.577 42.161-10.086 12.712 3.98 16.034 12.612 32.275 10.854 8.864-.96 15.555-8.248 23.875-10.854 14.517-4.54 31.382-.895 42.161 10.086zM197.31 65.023c-17.008 2.894-19.978 25.639-36.028 34.686-17.024 9.59-33.681.959-46.936 12.963-11.962 10.805-7.458 20.428-9.263 33.886-4.2 31.153-37.306 30.322-40.308 51.965-2.763 19.868 8.607 22.649 11.322 37.594 4.999 27.477-15.794 35.741-10.907 58.87 3.45 16.304 25.344 18.989 34.4 35.101 9.054 16.112 1.309 32.991 12.344 46.386 12.776 15.488 34.687 4.811 52.526 16.959 13.606 9.255 15.794 30.753 33.84 33.263 19.851 2.765 22.63-8.616 37.562-11.333 27.453-5.003 35.709 15.808 58.818 10.917 16.13-3.42 18.829-23.96 31.876-32.831 17.248-11.732 35.534-2.382 49.539-13.954 15.475-12.787 4.807-34.718 16.945-52.572 9.23-13.586 30.486-15.52 33.265-33.838 2.939-19.453-8.672-22.874-11.355-37.627-4.998-27.477 15.795-35.74 10.908-58.869-3.465-16.368-23.939-18.846-32.803-31.905-11.722-17.263-2.379-35.564-13.941-49.582-12.776-15.489-34.687-4.812-52.526-16.96-13.606-9.254-15.794-30.753-33.841-33.262-19.85-2.766-22.629 8.615-37.561 11.332-27.277 4.971-34.943-15.057-57.86-11.157z" data-color="1"></path>
            <path fill="#7B3D17" d="M202.421 148.253c-10.269 0-10.301 15.984 0 15.984s10.3-15.984 0-15.984" data-color="1"></path>
            <path fill="#7B3D17" d="M160.212 223.49a6.05 6.05 0 0 0-1.645-2.574 5.9 5.9 0 0 0-2.571-1.646 6.03 6.03 0 0 0-3.082-.687l-2.124.287a8.1 8.1 0 0 0-3.53 2.062c-.415.544-.83 1.071-1.246 1.615a7.95 7.95 0 0 0-1.086 4.028v1.598a6.05 6.05 0 0 0 .687 3.085 6.06 6.06 0 0 0 1.645 2.574 5.9 5.9 0 0 0 2.571 1.646 6 6 0 0 0 3.083.687c.702-.096 1.421-.191 2.124-.287a8.1 8.1 0 0 0 3.529-2.062c.415-.544.83-1.071 1.246-1.615a7.94 7.94 0 0 0 1.086-4.028v-1.598a6.05 6.05 0 0 0-.687-3.085" data-color="1"></path>
            <path fill="#7B3D17" d="M235.958 224.976c-10.269 0-10.301 15.985 0 15.985s10.301-15.985 0-15.985" data-color="1"></path>
            <path fill="#7B3D17" d="M317.118 154.119a8.1 8.1 0 0 0-2.06-3.533c-.543-.415-1.07-.831-1.613-1.246a7.9 7.9 0 0 0-4.025-1.087h-1.597a6 6 0 0 0-3.082.687c-.99.32-1.853.879-2.571 1.646a5.9 5.9 0 0 0-1.645 2.574 6.04 6.04 0 0 0-.687 3.085l.288 2.126a8.1 8.1 0 0 0 2.06 3.532c.543.416 1.07.831 1.613 1.247a7.9 7.9 0 0 0 4.024 1.087h1.597a6 6 0 0 0 3.082-.688 6.03 6.03 0 0 0 2.572-1.646 5.9 5.9 0 0 0 1.645-2.573 6.04 6.04 0 0 0 .686-3.085c-.096-.704-.191-1.423-.287-2.126" data-color="1"></path>
            <path fill="#7B3D17" d="M338.166 229.772c-10.268 0-10.3 15.984 0 15.984s10.301-15.984 0-15.984" data-color="1"></path>
            <path fill="#7B3D17" d="M293.45 304.897c-10.269 0-10.301 15.984 0 15.984s10.301-15.984 0-15.984" data-color="1"></path>
            <path fill="#7B3D17" d="M357.33 346.456c-10.268 0-10.3 15.984 0 15.984s10.301-15.984 0-15.984" data-color="1"></path>
            <path fill="#7B3D17" d="M242.058 382.692a8.1 8.1 0 0 0-2.06-3.533c-.543-.415-1.07-.831-1.613-1.247a7.9 7.9 0 0 0-4.024-1.087h-1.597a6 6 0 0 0-3.082.688 6.04 6.04 0 0 0-2.572 1.646 5.9 5.9 0 0 0-1.644 2.574 6 6 0 0 0-.687 3.085c.096.703.191 1.422.287 2.125a8.1 8.1 0 0 0 2.06 3.533c.543.415 1.07.831 1.613 1.247a7.93 7.93 0 0 0 4.025 1.087h1.597a6 6 0 0 0 3.082-.688 6 6 0 0 0 2.571-1.646 5.9 5.9 0 0 0 1.645-2.574 6.04 6.04 0 0 0 .687-3.084z" data-color="1"></path>
            <path fill="#7B3D17" d="M220.898 303.41a6.03 6.03 0 0 0-1.645-2.573 5.9 5.9 0 0 0-2.571-1.646 6 6 0 0 0-3.082-.688l-2.124.288a8.1 8.1 0 0 0-3.53 2.062c-.415.543-.83 1.071-1.245 1.614a7.94 7.94 0 0 0-1.086 4.028v1.599a6.04 6.04 0 0 0 .686 3.085 6.05 6.05 0 0 0 1.645 2.573 5.9 5.9 0 0 0 2.572 1.647c.958.495 1.98.735 3.082.687l2.124-.288a8.06 8.06 0 0 0 3.529-2.062c.415-.543.831-1.071 1.246-1.614a7.95 7.95 0 0 0 1.086-4.028v-1.599a6.04 6.04 0 0 0-.687-3.085" data-color="1"></path>
            <path fill="#7B3D17" d="M146.238 342.731a8.1 8.1 0 0 0-2.06-3.532c-.543-.416-1.07-.831-1.613-1.247a7.9 7.9 0 0 0-4.025-1.087h-1.597a6.03 6.03 0 0 0-3.082.687c-.99.32-1.852.88-2.571 1.647a5.9 5.9 0 0 0-1.645 2.573 6.04 6.04 0 0 0-.687 3.085l.288 2.126a8.1 8.1 0 0 0 2.06 3.533c.543.415 1.07.831 1.613 1.246a7.9 7.9 0 0 0 4.024 1.087h1.597a6.03 6.03 0 0 0 3.083-.687 6.04 6.04 0 0 0 2.571-1.646 5.9 5.9 0 0 0 1.645-2.574 6.04 6.04 0 0 0 .686-3.085z" data-color="1"></path>
            <path fill="#7B3D17" d="M93.824 276.126c-10.269 0-10.3 15.984 0 15.984s10.301-15.984 0-15.984" data-color="1"></path>
            <path fill="#7B3D17" d="M128.958 129.072c-10.268 0-10.3 15.984 0 15.984s10.301-15.984 0-15.984" data-color="1"></path>
            <path fill="#7B3D17" d="M275.196 82.83a6.03 6.03 0 0 0-1.645-2.574 5.9 5.9 0 0 0-2.571-1.646 6 6 0 0 0-3.082-.687l-2.124.287a8.07 8.07 0 0 0-3.529 2.062c-.416.544-.831 1.071-1.246 1.615a7.94 7.94 0 0 0-1.086 4.028v1.598a6.04 6.04 0 0 0 .687 3.085 6.04 6.04 0 0 0 1.645 2.573 5.9 5.9 0 0 0 2.571 1.647c.958.495 1.98.735 3.082.687l2.124-.288a8.06 8.06 0 0 0 3.529-2.062c.416-.543.831-1.07 1.246-1.614a7.94 7.94 0 0 0 1.086-4.028v-1.598a6.04 6.04 0 0 0-.687-3.085" data-color="1"></path>
            <path fill="#7B3D17" d="M398.853 189.811c-10.269 0-10.301 15.985 0 15.985s10.3-15.985 0-15.985" data-color="1"></path>
            <path fill="#7B3D17" d="M406.838 284.118c-10.269 0-10.301 15.984 0 15.984s10.3-15.984 0-15.984" data-color="1"></path>
        </g>
        <defs fill="none">
            <clipPath id="35a45a10-8661-4434-a0a3-7fe8fb79a467_comp-m7e26o1o">
                <path fill="#ffffff" d="M491 0v491H0V0z"></path>
            </clipPath>
        </defs>
    </g>
</svg>